#!OML:ASF I:\Actors\actors\Patient Classification 1\Patient 1\Session 1\Subject1.ASF
:FULLY-SPECIFIED
:DEGREES
1671
root 0.843466 17.4766 9.79175 8.80379 0.341641 -8.93135
lowerback -4.42877 2.00704 6.18361
upperback -9.6372 2.8162 1.63612
thorax -7.45272 1.0317 -1.77764
lowerneck -10.6677 -5.76548 -2.93471
upperneck 22.8783 -9.44752 7.8228
head 9.49386 -3.86212 2.08923
rclavicle -2.23633e-014 2.10712e-014
rhumerus 12.9656 14.3542 -51.8568
rradius 134.601
rwrist -9.4134
rhand 25.7258 -36.2239
rfingers 7.12502
rthumb 49.8267 302.463
lclavicle -2.23633e-014 2.10712e-014
lhumerus -43.2654 1.57431 79.722
lradius 112.72
lwrist 32.5786
lhand -30.7281 0.207354
lfingers 7.12502
lthumb -4.02055 30.1492
rfemur -0.40994 26.0727 26.1932
rtibia 1.21241
rfoot -14.7026 -27.1131
rtoes 1.64543
lfemur 12.2398 -50.8908 -18.2765
ltibia -5.52769
lfoot -28.5716 55.7873
ltoes 11.914
1672
root 0.841462 17.4783 9.77593 8.8716 0.375299 -8.92803
lowerback -4.26723 1.99506 6.09511
upperback -9.57464 2.80902 1.612
thorax -7.47814 1.03358 -1.7591
lowerneck -10.7402 -5.76094 -2.87655
upperneck 22.3577 -9.38291 7.75257
head 9.31428 -3.84812 2.0601
rclavicle -1.03368e-014 7.95139e-015
rhumerus 11.9119 14.6196 -52.5899
rradius 133.278
rwrist -8.10256
rhand 23.1357 -35.935
rfingers 7.12502
rthumb 47.4442 301.597
lclavicle -1.03368e-014 7.95139e-015
lhumerus -43.3579 1.65436 79.7938
lradius 112.752
lwrist 33.4009
lhand -30.6582 0.698477
lfingers 7.12502
lthumb -3.95309 30.6416
rfemur -0.551818 26.1112 26.1321
rtibia 1.20039
rfoot -14.6384 -27.1641
rtoes 1.6949
lfemur 12.0026 -50.9793 -18.1033
ltibia -5.49066
lfoot -28.3893 55.8883
ltoes 11.7891
1673
root 0.838495 17.4793 9.76051 8.93487 0.41369 -8.94602
lowerback -4.0912 2.00659 6.00897
upperback -9.51509 2.83364 1.57245
thorax -7.51219 1.05018 -1.75917
lowerneck -10.8606 -5.75387 -2.8479
upperneck 21.9207 -9.35503 7.8373
head 9.18649 -3.83341 2.08341
rclavicle -1.37161e-014 6.75868e-015
rhumerus 10.6434 14.8679 -53.3214
rradius 131.906
rwrist -7.6353
rhand 20.6177 -36.0449
rfingers 7.12502
rthumb 45.1101 300.499
lclavicle -1.37161e-014 6.75868e-015
lhumerus -43.4733 1.62854 79.9337
lradius 112.73
lwrist 33.8541
lhand -30.6896 0.856376
lfingers 7.12502
lthumb -3.98336 30.7989
rfemur -0.69463 26.1235 26.098
rtibia 1.19508
rfoot -14.571 -27.1862
rtoes 1.80805
lfemur 11.842 -51.1416 -17.9592
ltibia -5.47697
lfoot -28.5869 55.9852
ltoes 11.9566
1674
root 0.834669 17.481 9.74347 8.97916 0.461273 -8.9714
lowerback -3.84788 1.99908 5.89113
upperback -9.47647 2.83973 1.54796
thorax -7.61149 1.05823 -1.72841
lowerneck -11.0946 -5.80737 -2.99929
upperneck 21.6971 -9.44646 8.1264
head 9.18203 -3.85832 2.18842
rclavicle -1.6201e-014 3.57812e-014
rhumerus 9.26565 15.1094 -54.1193
rradius 130.347
rwrist -7.88589
rhand 18.731 -36.7078
rfingers 7.12502
rthumb 43.3511 299.172
lclavicle -1.6201e-014 3.57812e-014
lhumerus -43.6301 1.60692 80.0925
lradius 112.639
lwrist 33.898
lhand -30.6768 0.780525
lfingers 7.12502
lthumb -3.97108 30.7233
rfemur -0.855283 26.0021 26.0638
rtibia 1.22499
rfoot -14.5104 -27.1068
rtoes 1.76675
lfemur 11.7994 -51.4956 -17.9156
ltibia -5.44461
lfoot -29.3195 56.1525
ltoes 12.5315
1675
root 0.831379 17.4824 9.7242 9.00876 0.55975 -9.03596
lowerback -3.54938 1.94505 5.80101
upperback -9.44262 2.79024 1.564
thorax -7.75361 1.03711 -1.67114
lowerneck -11.4383 -5.84165 -3.26436
upperneck 21.6215 -9.51498 8.47597
head 9.25738 -3.86729 2.33298
rclavicle -2.92213e-014 -1.07344e-014
rhumerus 7.88638 15.4487 -55.0126
rradius 128.67
rwrist -8.09383
rhand 16.9598 -36.9914
rfingers 7.12502
rthumb 41.6931 298.317
lclavicle -2.92213e-014 -1.07344e-014
lhumerus -43.8802 1.64009 80.2539
lradius 112.616
lwrist 33.7794
lhand -30.4915 0.846498
lfingers 7.12502
lthumb -3.79209 30.7925
rfemur -0.995432 25.8787 26.0914
rtibia 1.25483
rfoot -14.4687 -27.0711
rtoes 1.67119
lfemur 11.6417 -51.6347 -17.6922
ltibia -5.45154
lfoot -29.4541 56.1841
ltoes 12.6154
1676
root 0.827813 17.4837 9.70304 9.04046 0.710789 -9.14659
lowerback -3.21129 1.86809 5.76864
upperback -9.40197 2.71427 1.5975
thorax -7.91262 0.99908 -1.6275
lowerneck -11.9188 -5.87684 -3.48191
upperneck 21.624 -9.5828 8.75542
head 9.38021 -3.8721 2.44275
rclavicle 6.26172e-015 -3.97569e-015
rhumerus 6.50638 15.8087 -55.9865
rradius 126.951
rwrist -8.35525
rhand 15.7736 -37.0325
rfingers 7.12502
rthumb 40.5793 297.919
lclavicle 6.26172e-015 -3.97569e-015
lhumerus -44.1758 1.67373 80.4204
lradius 112.619
lwrist 33.6305
lhand -30.3042 0.796055
lfingers 7.12502
lthumb -3.61119 30.7452
rfemur -1.13458 25.8366 26.1827
rtibia 1.28893
rfoot -14.5037 -27.1209
rtoes 2.03665
lfemur 11.2245 -51.3935 -17.1343
ltibia -5.52442
lfoot -28.6799 55.9669
ltoes 12.024
1677
root 0.823549 17.4861 9.67982 9.09962 0.866272 -9.20725
lowerback -2.85728 1.77015 5.68408
upperback -9.37104 2.61115 1.63926
thorax -8.09562 0.95109 -1.54515
lowerneck -12.4058 -5.89458 -3.50003
upperneck 21.5688 -9.59539 8.76559
head 9.45559 -3.86453 2.43397
rclavicle 1.23246e-014 3.97569e-015
rhumerus 5.02132 16.4084 -56.9678
rradius 125.259
rwrist -8.92047
rhand 14.2682 -37.3054
rfingers 7.12502
rthumb 39.1624 297.221
lclavicle 1.23246e-014 3.97569e-015
lhumerus -44.5196 1.78612 80.6
lradius 112.654
lwrist 33.5359
lhand -30.1011 0.636266
lfingers 7.12502
lthumb -3.41507 30.5887
rfemur -1.34302 25.8043 26.1886
rtibia 1.3531
rfoot -14.5374 -27.1794
rtoes 2.45417
lfemur 10.701 -51.1979 -16.5781
ltibia -5.52934
lfoot -27.8914 55.8016
ltoes 11.3448
1678
root 0.821259 17.4885 9.65873 9.15312 1.00318 -9.13295
lowerback -2.53044 1.66909 5.50645
upperback -9.3101 2.49448 1.64128
thorax -8.23073 0.903454 -1.4503
lowerneck -12.959 -5.89591 -3.504
upperneck 21.4869 -9.57401 8.73628
head 9.52872 -3.84288 2.41195
rclavicle 8.05078e-015 3.22031e-014
rhumerus 3.37352 17.1284 -58.0102
rradius 123.634
rwrist -9.36044
rhand 12.2993 -37.5896
rfingers 7.12502
rthumb 37.3038 296.425
lclavicle 8.05078e-015 3.22031e-014
lhumerus -44.8154 1.94861 80.8174
lradius 112.716
lwrist 33.415
lhand -29.8408 0.696254
lfingers 7.12502
lthumb -3.16367 30.6525
rfemur -1.51853 25.7169 26.0336
rtibia 1.37072
rfoot -14.5023 -27.224
rtoes 2.4375
lfemur 10.454 -51.4744 -16.4925
ltibia -5.4493
lfoot -27.9656 55.9275
ltoes 11.43
1679
root 0.818654 17.4909 9.64007 9.20243 1.14129 -9.08604
lowerback -2.24691 1.5826 5.37407
upperback -9.22079 2.39154 1.62924
thorax -8.30626 0.860749 -1.39327
lowerneck -13.4829 -5.91985 -3.6127
upperneck 21.3266 -9.59934 8.89734
head 9.58828 -3.83431 2.46737
rclavicle -5.96354e-015 1.03368e-014
rhumerus 1.63966 17.8437 -59.1502
rradius 122.1
rwrist -9.45139
rhand 9.99238 -37.8648
rfingers 7.12502
rthumb 35.1191 295.607
lclavicle -5.96354e-015 1.03368e-014
lhumerus -45.0139 2.09309 81.083
lradius 112.717
lwrist 33.1259
lhand -29.5087 0.840795
lfingers 7.12502
lthumb -2.84297 30.8016
rfemur -1.6432 25.6869 25.9355
rtibia 1.34268
rfoot -14.4485 -27.3464
rtoes 2.33536
lfemur 10.4255 -52.0374 -16.5552
ltibia -5.40904
lfoot -28.6063 56.2183
ltoes 12.1018
1680
root 0.813709 17.4933 9.62159 9.26901 1.26318 -9.13348
lowerback -2.01862 1.49107 5.31066
upperback -9.13892 2.28215 1.66246
thorax -8.35859 0.81231 -1.32411
lowerneck -13.5819 -5.92089 -3.76473
upperneck 20.7548 -9.57212 9.17851
head 9.42865 -3.81859 2.58731
rclavicle 1.14301e-014 -2.10712e-014
rhumerus -0.0900409 18.6621 -60.3861
rradius 120.712
rwrist -9.24553
rhand 7.38436 -38.4788
rfingers 7.12502
rthumb 32.6415 294.446
lclavicle 1.14301e-014 -2.10712e-014
lhumerus -45.2369 2.31219 81.3558
lradius 112.698
lwrist 32.7519
lhand -29.172 0.894094
lfingers 7.12502
lthumb -2.51782 30.859
rfemur -1.77418 25.8357 25.9682
rtibia 1.3319
rfoot -14.4786 -27.5846
rtoes 2.51424
lfemur 10.3464 -52.5119 -16.4291
ltibia -5.42361
lfoot -28.9983 56.5285
ltoes 12.2766
